<svg width="1280" height="760" viewBox="0 0 1280 760" fill="none" xmlns="http://www.w3.org/2000/svg">
  <defs>
    <filter id="shadow" x="-20%" y="-20%" width="140%" height="140%">
      <feDropShadow dx="0" dy="14" stdDeviation="18" flood-color="#261F1A" flood-opacity="0.12"/>
    </filter>
    <marker id="arrow" markerWidth="12" markerHeight="12" refX="10" refY="6" orient="auto" markerUnits="strokeWidth">
      <path d="M2 2L10 6L2 10Z" fill="#8B1D1D"/>
    </marker>
    <style>
      .bg { fill: #FAF7F2; }
      .title { font: 700 34px Arial, sans-serif; fill: #261F1A; }
      .subtitle { font: 400 16px Arial, sans-serif; fill: #756B63; }
      .section-title { font: 700 18px Arial, sans-serif; fill: #261F1A; }
      .label { font: 700 14px Arial, sans-serif; fill: #261F1A; }
      .muted { font: 400 12px Arial, sans-serif; fill: #756B63; }
      .logo-text { font: 800 18px Arial, sans-serif; fill: #FFFFFF; }
      .logo-text-dark { font: 800 18px Arial, sans-serif; fill: #111111; }
      .card { fill: #FFFFFF; stroke: #EFE6DD; stroke-width: 1.5; filter: url(#shadow); }
      .line { stroke: #8B1D1D; stroke-width: 3; marker-end: url(#arrow); }
      .soft-line { stroke: #D6A84A; stroke-width: 2.5; stroke-dasharray: 8 8; marker-end: url(#arrow); }
      .chip { fill: #FFF7F1; stroke: #E8D6C9; stroke-width: 1; }
    </style>
  </defs>

  <rect width="1280" height="760" rx="28" class="bg"/>

  <text x="640" y="58" text-anchor="middle" class="title">Mai Am Gia Dinh Viet - System Architecture</text>
  <text x="640" y="88" text-anchor="middle" class="subtitle">A simple overview of the main technologies used across the mobile app, backend, data, AI, and delivery layers.</text>

  <rect x="60" y="112" width="1160" height="36" rx="18" class="chip"/>
  <text x="640" y="135" text-anchor="middle" class="muted">Main flow: Mobile App -> FastAPI Backend -> PostgreSQL. Supporting services: Google Sign-In, Google Gemini, CSV import, and EAS builds.</text>

  <!-- Mobile App -->
  <rect x="60" y="170" width="270" height="260" rx="24" class="card"/>
  <rect x="60" y="170" width="270" height="7" rx="3.5" fill="#8B1D1D"/>
  <text x="195" y="213" text-anchor="middle" class="section-title">Mobile App</text>
  <text x="195" y="237" text-anchor="middle" class="muted">Expo React Native client</text>

  <!-- Expo mark -->
  <circle cx="125" cy="294" r="28" fill="#000020"/>
  <path d="M112 311L125 276L138 311L130 311L125 297L120 311Z" fill="#FFFFFF"/>
  <text x="125" y="335" text-anchor="middle" class="label">Expo</text>

  <!-- React Native mark -->
  <circle cx="207" cy="294" r="5" fill="#61DAFB"/>
  <ellipse cx="207" cy="294" rx="32" ry="11" stroke="#61DAFB" stroke-width="4"/>
  <ellipse cx="207" cy="294" rx="32" ry="11" stroke="#61DAFB" stroke-width="4" transform="rotate(60 207 294)"/>
  <ellipse cx="207" cy="294" rx="32" ry="11" stroke="#61DAFB" stroke-width="4" transform="rotate(120 207 294)"/>
  <text x="207" y="335" text-anchor="middle" class="label">React Native</text>

  <!-- TypeScript mark -->
  <rect x="98" y="342" width="54" height="54" rx="8" fill="#3178C6"/>
  <text x="125" y="376" text-anchor="middle" class="logo-text">TS</text>
  <text x="125" y="409" text-anchor="middle" class="label">TypeScript</text>

  <!-- NativeWind / Tailwind mark -->
  <rect x="180" y="342" width="54" height="54" rx="12" fill="#E0F7FF"/>
  <path d="M190 366C196 354 204 354 212 362C216 366 220 368 226 364C222 376 214 376 206 368C202 364 198 362 190 366Z" fill="#38BDF8"/>
  <path d="M188 383C194 371 202 371 210 379C214 383 220 385 228 381C222 393 214 393 206 385C202 381 198 379 188 383Z" fill="#38BDF8"/>
  <text x="207" y="409" text-anchor="middle" class="label">NativeWind</text>

  <!-- Backend -->
  <rect x="505" y="160" width="270" height="280" rx="24" class="card"/>
  <rect x="505" y="160" width="270" height="7" rx="3.5" fill="#009688"/>
  <text x="640" y="203" text-anchor="middle" class="section-title">Backend API</text>
  <text x="640" y="227" text-anchor="middle" class="muted">REST API, auth, admin, content</text>

  <!-- FastAPI mark -->
  <circle cx="578" cy="295" r="30" fill="#009688"/>
  <path d="M582 265L558 301H577L571 325L599 287H580Z" fill="#FFFFFF"/>
  <text x="578" y="338" text-anchor="middle" class="label">FastAPI</text>

  <!-- Python mark -->
  <rect x="672" y="266" width="60" height="60" rx="14" fill="#3776AB"/>
  <path d="M685 295C685 282 692 276 703 276H720V291H700C696 291 694 293 694 297V306H685Z" fill="#FFD43B"/>
  <path d="M719 297C719 310 712 316 701 316H684V301H704C708 301 710 299 710 295V286H719Z" fill="#FFFFFF"/>
  <circle cx="699" cy="284" r="2" fill="#111111"/>
  <circle cx="705" cy="308" r="2" fill="#111111"/>
  <text x="702" y="338" text-anchor="middle" class="label">Python</text>

  <!-- JWT mark -->
  <polygon points="640,345 666,360 666,390 640,405 614,390 614,360" fill="#111111"/>
  <text x="640" y="382" text-anchor="middle" class="logo-text">JWT</text>
  <text x="640" y="418" text-anchor="middle" class="label">JWT Auth</text>

  <!-- Data Layer -->
  <rect x="950" y="175" width="270" height="250" rx="24" class="card"/>
  <rect x="950" y="175" width="270" height="7" rx="3.5" fill="#1F8B4C"/>
  <text x="1085" y="218" text-anchor="middle" class="section-title">Data Layer</text>
  <text x="1085" y="242" text-anchor="middle" class="muted">Persistent application data</text>

  <!-- PostgreSQL mark -->
  <circle cx="1062" cy="304" r="34" fill="#4169E1"/>
  <path d="M1040 304C1040 287 1050 277 1065 277C1081 277 1091 288 1091 304C1091 319 1081 330 1067 330H1057C1047 330 1040 319 1040 304Z" fill="#FFFFFF"/>
  <circle cx="1055" cy="298" r="3" fill="#4169E1"/>
  <circle cx="1073" cy="298" r="3" fill="#4169E1"/>
  <path d="M1064 309L1087 316" stroke="#4169E1" stroke-width="5" stroke-linecap="round"/>
  <text x="1062" y="365" text-anchor="middle" class="label">PostgreSQL</text>

  <!-- CSV/Pandas mark -->
  <rect x="1078" y="352" width="54" height="54" rx="9" fill="#150458"/>
  <rect x="1091" y="360" width="7" height="38" fill="#FFFFFF"/>
  <rect x="1103" y="360" width="7" height="16" fill="#FFFFFF"/>
  <rect x="1103" y="382" width="7" height="16" fill="#FFFFFF"/>
  <rect x="1115" y="360" width="7" height="38" fill="#FFFFFF"/>
  <text x="1105" y="419" text-anchor="middle" class="label">CSV Import</text>

  <!-- AI Assistant -->
  <rect x="505" y="520" width="270" height="160" rx="24" class="card"/>
  <rect x="505" y="520" width="270" height="7" rx="3.5" fill="#D6A84A"/>
  <text x="640" y="562" text-anchor="middle" class="section-title">AI Assistant</text>
  <text x="640" y="586" text-anchor="middle" class="muted">Ask & Find chatbot and embeddings</text>

  <!-- Gemini mark -->
  <circle cx="640" cy="637" r="31" fill="#8E75B2"/>
  <path d="M640 604L649 628L673 637L649 646L640 670L631 646L607 637L631 628Z" fill="#FFFFFF"/>
  <text x="640" y="686" text-anchor="middle" class="label">Google Gemini</text>

  <!-- Identity -->
  <rect x="60" y="520" width="270" height="160" rx="24" class="card"/>
  <rect x="60" y="520" width="270" height="7" rx="3.5" fill="#4285F4"/>
  <text x="195" y="562" text-anchor="middle" class="section-title">Identity</text>
  <text x="195" y="586" text-anchor="middle" class="muted">Third-party sign-in provider</text>

  <!-- Google G style mark -->
  <circle cx="195" cy="637" r="31" fill="#FFFFFF" stroke="#E8D6C9" stroke-width="1.5"/>
  <path d="M218 637C218 635 218 633 217 631H195V642H207C205 648 200 652 195 652C186 652 179 645 179 637C179 628 186 621 195 621C199 621 203 623 206 626L214 618C209 613 202 610 195 610C180 610 168 622 168 637C168 652 180 664 195 664C209 664 218 653 218 637Z" fill="#4285F4"/>
  <path d="M171 625L180 632C183 625 188 621 195 621C199 621 203 623 206 626L214 618C209 613 202 610 195 610C184 610 175 616 171 625Z" fill="#EA4335"/>
  <path d="M195 664C202 664 209 662 214 657L205 650C202 652 199 653 195 653C188 653 182 649 180 642L171 649C175 658 184 664 195 664Z" fill="#34A853"/>
  <path d="M180 642C179 640 179 639 179 637C179 635 179 633 180 632L171 625C169 629 168 633 168 637C168 641 169 645 171 649Z" fill="#FBBC05"/>
  <text x="195" y="686" text-anchor="middle" class="label">Google Sign-In</text>

  <!-- Build & Delivery -->
  <rect x="950" y="520" width="270" height="160" rx="24" class="card"/>
  <rect x="950" y="520" width="270" height="7" rx="3.5" fill="#7C3AED"/>
  <text x="1085" y="562" text-anchor="middle" class="section-title">Build & Delivery</text>
  <text x="1085" y="586" text-anchor="middle" class="muted">Development and release workflow</text>

  <!-- EAS / Android / iOS marks -->
  <circle cx="1033" cy="637" r="25" fill="#000020"/>
  <path d="M1022 651L1033 623L1044 651H1037L1033 641L1029 651Z" fill="#FFFFFF"/>
  <text x="1033" y="681" text-anchor="middle" class="label">EAS</text>

  <circle cx="1107" cy="637" r="25" fill="#3DDC84"/>
  <rect x="1094" y="630" width="26" height="22" rx="7" fill="#FFFFFF"/>
  <line x1="1098" y1="625" x2="1092" y2="616" stroke="#FFFFFF" stroke-width="3" stroke-linecap="round"/>
  <line x1="1116" y1="625" x2="1122" y2="616" stroke="#FFFFFF" stroke-width="3" stroke-linecap="round"/>
  <circle cx="1101" cy="639" r="2" fill="#3DDC84"/>
  <circle cx="1113" cy="639" r="2" fill="#3DDC84"/>
  <text x="1107" y="681" text-anchor="middle" class="label">Android</text>

  <circle cx="1178" cy="637" r="25" fill="#111111"/>
  <path d="M1178 619C1182 619 1185 616 1186 612C1182 612 1178 615 1177 619H1178Z" fill="#FFFFFF"/>
  <path d="M1190 645C1188 650 1185 655 1181 655C1178 655 1177 653 1174 653C1171 653 1169 655 1167 655C1162 655 1157 646 1157 638C1157 630 1162 625 1168 625C1171 625 1173 627 1175 627C1177 627 1180 625 1183 625C1186 625 1190 627 1192 631C1188 633 1186 636 1186 640C1186 643 1188 645 1190 645Z" fill="#FFFFFF"/>
  <text x="1178" y="681" text-anchor="middle" class="label">iOS</text>

  <!-- Main arrows -->
  <path d="M330 300H505" class="line"/>
  <text x="417" y="286" text-anchor="middle" class="muted">REST JSON API</text>

  <path d="M775 300H950" class="line"/>
  <text x="862" y="286" text-anchor="middle" class="muted">SQLModel</text>

  <path d="M195 520V430" class="soft-line"/>
  <text x="290" y="477" text-anchor="middle" class="muted">OAuth token</text>

  <path d="M505 600H330" class="soft-line"/>
  <text x="417" y="588" text-anchor="middle" class="muted">Google auth</text>

  <path d="M640 520V440" class="soft-line"/>
  <text x="704" y="488" text-anchor="middle" class="muted">AI answers</text>

  <path d="M775 600H950" class="soft-line"/>
  <text x="862" y="588" text-anchor="middle" class="muted">build app</text>

  <path d="M1085 520V425" class="soft-line"/>
  <text x="1162" y="482" text-anchor="middle" class="muted">seed data</text>
</svg>
